<?xml version="1.0" encoding="UTF-8" standalone="no"?>
<!DOCTYPE svg PUBLIC "-//W3C//DTD SVG 1.1//EN"
 "http://www.w3.org/Graphics/SVG/1.1/DTD/svg11.dtd">
<!-- Generated by graphviz version 2.42.4 (0)
 -->
<!-- Title: G Pages: 1 -->
<svg width="389pt" height="650pt"
 viewBox="0.00 0.00 388.88 650.00" xmlns="http://www.w3.org/2000/svg" xmlns:xlink="http://www.w3.org/1999/xlink">
<g id="graph0" class="graph" transform="scale(1 1) rotate(0) translate(4 646)">
<title>G</title>
<polygon fill="white" stroke="transparent" points="-4,4 -4,-646 384.88,-646 384.88,4 -4,4"/>
<text text-anchor="middle" x="190.44" y="-622" font-family="Times,serif" font-size="20.00">Lakeflow Jobs Dependency Graph</text>
<!-- env -->
<g id="node1" class="node">
<title>env</title>
<path fill="none" stroke="black" d="M254.38,-612C254.38,-612 144.38,-612 144.38,-612 138.38,-612 132.38,-606 132.38,-600 132.38,-600 132.38,-588 132.38,-588 132.38,-582 138.38,-576 144.38,-576 144.38,-576 254.38,-576 254.38,-576 260.38,-576 266.38,-582 266.38,-588 266.38,-588 266.38,-600 266.38,-600 266.38,-606 260.38,-612 254.38,-612"/>
<text text-anchor="middle" x="199.38" y="-590.3" font-family="Arial" font-size="14.00">environment_check</text>
</g>
<!-- bsql -->
<g id="node2" class="node">
<title>bsql</title>
<path fill="none" stroke="black" d="M120.38,-540C120.38,-540 24.38,-540 24.38,-540 18.38,-540 12.38,-534 12.38,-528 12.38,-528 12.38,-516 12.38,-516 12.38,-510 18.38,-504 24.38,-504 24.38,-504 120.38,-504 120.38,-504 126.38,-504 132.38,-510 132.38,-516 132.38,-516 132.38,-528 132.38,-528 132.38,-534 126.38,-540 120.38,-540"/>
<text text-anchor="middle" x="72.38" y="-518.3" font-family="Arial" font-size="14.00">bronze_sqlserver</text>
</g>
<!-- env&#45;&gt;bsql -->
<g id="edge1" class="edge">
<title>env&#45;&gt;bsql</title>
<path fill="none" stroke="black" d="M168.31,-575.88C151.55,-566.64 130.67,-555.13 112.67,-545.21"/>
<polygon fill="black" stroke="black" points="114.01,-541.95 103.56,-540.19 110.63,-548.08 114.01,-541.95"/>
</g>
<!-- bpg -->
<g id="node3" class="node">
<title>bpg</title>
<path fill="none" stroke="black" d="M368.88,-540C368.88,-540 275.88,-540 275.88,-540 269.88,-540 263.88,-534 263.88,-528 263.88,-528 263.88,-516 263.88,-516 263.88,-510 269.88,-504 275.88,-504 275.88,-504 368.88,-504 368.88,-504 374.88,-504 380.88,-510 380.88,-516 380.88,-516 380.88,-528 380.88,-528 380.88,-534 374.88,-540 368.88,-540"/>
<text text-anchor="middle" x="322.38" y="-518.3" font-family="Arial" font-size="14.00">bronze_postgres</text>
</g>
<!-- env&#45;&gt;bpg -->
<g id="edge2" class="edge">
<title>env&#45;&gt;bpg</title>
<path fill="none" stroke="black" d="M229.46,-575.88C245.7,-566.64 265.92,-555.13 283.35,-545.21"/>
<polygon fill="black" stroke="black" points="285.21,-548.18 292.17,-540.19 281.75,-542.09 285.21,-548.18"/>
</g>
<!-- bf -->
<g id="node4" class="node">
<title>bf</title>
<path fill="none" stroke="black" d="M231.88,-540C231.88,-540 166.88,-540 166.88,-540 160.88,-540 154.88,-534 154.88,-528 154.88,-528 154.88,-516 154.88,-516 154.88,-510 160.88,-504 166.88,-504 166.88,-504 231.88,-504 231.88,-504 237.88,-504 243.88,-510 243.88,-516 243.88,-516 243.88,-528 243.88,-528 243.88,-534 237.88,-540 231.88,-540"/>
<text text-anchor="middle" x="199.38" y="-518.3" font-family="Arial" font-size="14.00">bronze_files</text>
</g>
<!-- env&#45;&gt;bf -->
<g id="edge3" class="edge">
<title>env&#45;&gt;bf</title>
<path fill="none" stroke="black" d="M199.38,-575.7C199.38,-567.98 199.38,-558.71 199.38,-550.11"/>
<polygon fill="black" stroke="black" points="202.88,-550.1 199.38,-540.1 195.88,-550.1 202.88,-550.1"/>
</g>
<!-- sc -->
<g id="node5" class="node">
<title>sc</title>
<path fill="none" stroke="black" d="M246.88,-468C246.88,-468 151.88,-468 151.88,-468 145.88,-468 139.88,-462 139.88,-456 139.88,-456 139.88,-444 139.88,-444 139.88,-438 145.88,-432 151.88,-432 151.88,-432 246.88,-432 246.88,-432 252.88,-432 258.88,-438 258.88,-444 258.88,-444 258.88,-456 258.88,-456 258.88,-462 252.88,-468 246.88,-468"/>
<text text-anchor="middle" x="199.38" y="-446.3" font-family="Arial" font-size="14.00">silver_customers</text>
</g>
<!-- bsql&#45;&gt;sc -->
<g id="edge4" class="edge">
<title>bsql&#45;&gt;sc</title>
<path fill="none" stroke="black" d="M103.44,-503.88C120.2,-494.64 141.08,-483.13 159.08,-473.21"/>
<polygon fill="black" stroke="black" points="161.12,-476.08 168.19,-468.19 157.74,-469.95 161.12,-476.08"/>
</g>
<!-- sp -->
<g id="node6" class="node">
<title>sp</title>
<path fill="none" stroke="black" d="M109.88,-468C109.88,-468 26.88,-468 26.88,-468 20.88,-468 14.88,-462 14.88,-456 14.88,-456 14.88,-444 14.88,-444 14.88,-438 20.88,-432 26.88,-432 26.88,-432 109.88,-432 109.88,-432 115.88,-432 121.88,-438 121.88,-444 121.88,-444 121.88,-456 121.88,-456 121.88,-462 115.88,-468 109.88,-468"/>
<text text-anchor="middle" x="68.38" y="-446.3" font-family="Arial" font-size="14.00">silver_products</text>
</g>
<!-- bsql&#45;&gt;sp -->
<g id="edge6" class="edge">
<title>bsql&#45;&gt;sp</title>
<path fill="none" stroke="black" d="M71.39,-503.7C70.95,-495.98 70.42,-486.71 69.93,-478.11"/>
<polygon fill="black" stroke="black" points="73.42,-477.89 69.35,-468.1 66.43,-478.29 73.42,-477.89"/>
</g>
<!-- ss -->
<g id="node7" class="node">
<title>ss</title>
<path fill="none" stroke="black" d="M109.88,-396C109.88,-396 46.88,-396 46.88,-396 40.88,-396 34.88,-390 34.88,-384 34.88,-384 34.88,-372 34.88,-372 34.88,-366 40.88,-360 46.88,-360 46.88,-360 109.88,-360 109.88,-360 115.88,-360 121.88,-366 121.88,-372 121.88,-372 121.88,-384 121.88,-384 121.88,-390 115.88,-396 109.88,-396"/>
<text text-anchor="middle" x="78.38" y="-374.3" font-family="Arial" font-size="14.00">silver_sales</text>
</g>
<!-- bsql&#45;&gt;ss -->
<g id="edge8" class="edge">
<title>bsql&#45;&gt;ss</title>
<path fill="none" stroke="black" d="M39.85,-503.98C26.59,-495.18 12.68,-483.09 5.38,-468 -1.59,-453.6 -1.89,-446.25 5.38,-432 11.61,-419.77 22.13,-409.7 33.28,-401.75"/>
<polygon fill="black" stroke="black" points="35.45,-404.51 41.86,-396.08 31.59,-398.67 35.45,-404.51"/>
</g>
<!-- sd -->
<g id="node8" class="node">
<title>sd</title>
<path fill="none" stroke="black" d="M330.88,-396C330.88,-396 263.88,-396 263.88,-396 257.88,-396 251.88,-390 251.88,-384 251.88,-384 251.88,-372 251.88,-372 251.88,-366 257.88,-360 263.88,-360 263.88,-360 330.88,-360 330.88,-360 336.88,-360 342.88,-366 342.88,-372 342.88,-372 342.88,-384 342.88,-384 342.88,-390 336.88,-396 330.88,-396"/>
<text text-anchor="middle" x="297.38" y="-374.3" font-family="Arial" font-size="14.00">silver_digital</text>
</g>
<!-- bpg&#45;&gt;sd -->
<g id="edge11" class="edge">
<title>bpg&#45;&gt;sd</title>
<path fill="none" stroke="black" d="M319.36,-503.87C315.1,-479.67 307.27,-435.21 302.2,-406.39"/>
<polygon fill="black" stroke="black" points="305.58,-405.43 300.4,-396.19 298.69,-406.64 305.58,-405.43"/>
</g>
<!-- bf&#45;&gt;sc -->
<g id="edge5" class="edge">
<title>bf&#45;&gt;sc</title>
<path fill="none" stroke="black" d="M199.38,-503.7C199.38,-495.98 199.38,-486.71 199.38,-478.11"/>
<polygon fill="black" stroke="black" points="202.88,-478.1 199.38,-468.1 195.88,-478.1 202.88,-478.1"/>
</g>
<!-- bf&#45;&gt;sp -->
<g id="edge7" class="edge">
<title>bf&#45;&gt;sp</title>
<path fill="none" stroke="black" d="M167.33,-503.88C149.88,-494.55 128.11,-482.92 109.43,-472.94"/>
<polygon fill="black" stroke="black" points="111.01,-469.82 100.55,-468.19 107.72,-475.99 111.01,-469.82"/>
</g>
<!-- bf&#45;&gt;ss -->
<g id="edge9" class="edge">
<title>bf&#45;&gt;ss</title>
<path fill="none" stroke="black" d="M233.21,-503.96C246.76,-495.22 260.9,-483.17 268.38,-468 275.45,-453.65 278.05,-444.74 268.38,-432 251.86,-410.25 182.16,-395.03 131.97,-386.64"/>
<polygon fill="black" stroke="black" points="132.32,-383.15 121.89,-385.01 131.2,-390.06 132.32,-383.15"/>
</g>
<!-- gd -->
<g id="node9" class="node">
<title>gd</title>
<path fill="none" stroke="black" d="M221.88,-324C221.88,-324 126.88,-324 126.88,-324 120.88,-324 114.88,-318 114.88,-312 114.88,-312 114.88,-300 114.88,-300 114.88,-294 120.88,-288 126.88,-288 126.88,-288 221.88,-288 221.88,-288 227.88,-288 233.88,-294 233.88,-300 233.88,-300 233.88,-312 233.88,-312 233.88,-318 227.88,-324 221.88,-324"/>
<text text-anchor="middle" x="174.38" y="-302.3" font-family="Arial" font-size="14.00">gold_dimensions</text>
</g>
<!-- sc&#45;&gt;gd -->
<g id="edge12" class="edge">
<title>sc&#45;&gt;gd</title>
<path fill="none" stroke="black" d="M196.36,-431.87C192.1,-407.67 184.27,-363.21 179.2,-334.39"/>
<polygon fill="black" stroke="black" points="182.58,-333.43 177.4,-324.19 175.69,-334.64 182.58,-333.43"/>
</g>
<!-- sp&#45;&gt;ss -->
<g id="edge10" class="edge">
<title>sp&#45;&gt;ss</title>
<path fill="none" stroke="black" d="M70.85,-431.7C71.95,-423.98 73.27,-414.71 74.5,-406.11"/>
<polygon fill="black" stroke="black" points="77.98,-406.5 75.93,-396.1 71.05,-405.51 77.98,-406.5"/>
</g>
<!-- sp&#45;&gt;gd -->
<g id="edge13" class="edge">
<title>sp&#45;&gt;gd</title>
<path fill="none" stroke="black" d="M92.83,-431.84C105.19,-422.31 119.77,-409.63 130.38,-396 145.18,-376.97 156.94,-352.17 164.57,-333.58"/>
<polygon fill="black" stroke="black" points="167.84,-334.82 168.27,-324.23 161.33,-332.24 167.84,-334.82"/>
</g>
<!-- ss&#45;&gt;gd -->
<g id="edge14" class="edge">
<title>ss&#45;&gt;gd</title>
<path fill="none" stroke="black" d="M102.11,-359.7C114.31,-350.8 129.36,-339.82 142.56,-330.2"/>
<polygon fill="black" stroke="black" points="144.9,-332.82 150.92,-324.1 140.78,-327.17 144.9,-332.82"/>
</g>
<!-- sd&#45;&gt;gd -->
<g id="edge15" class="edge">
<title>sd&#45;&gt;gd</title>
<path fill="none" stroke="black" d="M267.29,-359.88C251.06,-350.64 230.83,-339.13 213.4,-329.21"/>
<polygon fill="black" stroke="black" points="215,-326.09 204.58,-324.19 211.54,-332.18 215,-326.09"/>
</g>
<!-- gf -->
<g id="node10" class="node">
<title>gf</title>
<path fill="none" stroke="black" d="M201.38,-252C201.38,-252 147.38,-252 147.38,-252 141.38,-252 135.38,-246 135.38,-240 135.38,-240 135.38,-228 135.38,-228 135.38,-222 141.38,-216 147.38,-216 147.38,-216 201.38,-216 201.38,-216 207.38,-216 213.38,-222 213.38,-228 213.38,-228 213.38,-240 213.38,-240 213.38,-246 207.38,-252 201.38,-252"/>
<text text-anchor="middle" x="174.38" y="-230.3" font-family="Arial" font-size="14.00">gold_facts</text>
</g>
<!-- gd&#45;&gt;gf -->
<g id="edge16" class="edge">
<title>gd&#45;&gt;gf</title>
<path fill="none" stroke="black" d="M174.38,-287.7C174.38,-279.98 174.38,-270.71 174.38,-262.11"/>
<polygon fill="black" stroke="black" points="177.88,-262.1 174.38,-252.1 170.88,-262.1 177.88,-262.1"/>
</g>
<!-- dq -->
<g id="node11" class="node">
<title>dq</title>
<path fill="none" stroke="black" d="M223.88,-180C223.88,-180 124.88,-180 124.88,-180 118.88,-180 112.88,-174 112.88,-168 112.88,-168 112.88,-156 112.88,-156 112.88,-150 118.88,-144 124.88,-144 124.88,-144 223.88,-144 223.88,-144 229.88,-144 235.88,-150 235.88,-156 235.88,-156 235.88,-168 235.88,-168 235.88,-174 229.88,-180 223.88,-180"/>
<text text-anchor="middle" x="174.38" y="-158.3" font-family="Arial" font-size="14.00">data_quality_gate</text>
</g>
<!-- gf&#45;&gt;dq -->
<g id="edge17" class="edge">
<title>gf&#45;&gt;dq</title>
<path fill="none" stroke="black" d="M174.38,-215.7C174.38,-207.98 174.38,-198.71 174.38,-190.11"/>
<polygon fill="black" stroke="black" points="177.88,-190.1 174.38,-180.1 170.88,-190.1 177.88,-190.1"/>
</g>
<!-- pub -->
<g id="node12" class="node">
<title>pub</title>
<path fill="none" stroke="black" d="M208.38,-108C208.38,-108 140.38,-108 140.38,-108 134.38,-108 128.38,-102 128.38,-96 128.38,-96 128.38,-84 128.38,-84 128.38,-78 134.38,-72 140.38,-72 140.38,-72 208.38,-72 208.38,-72 214.38,-72 220.38,-78 220.38,-84 220.38,-84 220.38,-96 220.38,-96 220.38,-102 214.38,-108 208.38,-108"/>
<text text-anchor="middle" x="174.38" y="-86.3" font-family="Arial" font-size="14.00">publish_gold</text>
</g>
<!-- dq&#45;&gt;pub -->
<g id="edge18" class="edge">
<title>dq&#45;&gt;pub</title>
<path fill="none" stroke="black" d="M174.38,-143.7C174.38,-135.98 174.38,-126.71 174.38,-118.11"/>
<polygon fill="black" stroke="black" points="177.88,-118.1 174.38,-108.1 170.88,-118.1 177.88,-118.1"/>
</g>
<!-- rec -->
<g id="node13" class="node">
<title>rec</title>
<path fill="none" stroke="black" d="M226.38,-36C226.38,-36 122.38,-36 122.38,-36 116.38,-36 110.38,-30 110.38,-24 110.38,-24 110.38,-12 110.38,-12 110.38,-6 116.38,0 122.38,0 122.38,0 226.38,0 226.38,0 232.38,0 238.38,-6 238.38,-12 238.38,-12 238.38,-24 238.38,-24 238.38,-30 232.38,-36 226.38,-36"/>
<text text-anchor="middle" x="174.38" y="-14.3" font-family="Arial" font-size="14.00">final_reconciliation</text>
</g>
<!-- pub&#45;&gt;rec -->
<g id="edge19" class="edge">
<title>pub&#45;&gt;rec</title>
<path fill="none" stroke="black" d="M174.38,-71.7C174.38,-63.98 174.38,-54.71 174.38,-46.11"/>
<polygon fill="black" stroke="black" points="177.88,-46.1 174.38,-36.1 170.88,-46.1 177.88,-46.1"/>
</g>
</g>
</svg>
