<?xml version="1.0" encoding="UTF-8" standalone="no"?>
<!DOCTYPE svg PUBLIC "-//W3C//DTD SVG 1.1//EN"
 "http://www.w3.org/Graphics/SVG/1.1/DTD/svg11.dtd">
<!-- Generated by graphviz version 2.42.4 (0)
 -->
<!-- Title: G Pages: 1 -->
<svg width="656pt" height="154pt"
 viewBox="0.00 0.00 656.00 154.00" xmlns="http://www.w3.org/2000/svg" xmlns:xlink="http://www.w3.org/1999/xlink">
<g id="graph0" class="graph" transform="scale(1 1) rotate(0) translate(4 150)">
<title>G</title>
<polygon fill="white" stroke="transparent" points="-4,4 -4,-150 652,-150 652,4 -4,4"/>
<text text-anchor="middle" x="324" y="-126" font-family="Times,serif" font-size="20.00">SCD Type 2 Customer Timeline</text>
<!-- v1 -->
<g id="node1" class="node">
<title>v1</title>
<polygon fill="none" stroke="black" points="0,-0.5 0,-115.5 173,-115.5 173,-0.5 0,-0.5"/>
<text text-anchor="middle" x="86.5" y="-100.3" font-family="Arial" font-size="14.00">Version 1</text>
<polyline fill="none" stroke="black" points="0,-92.5 173,-92.5 "/>
<text text-anchor="middle" x="86.5" y="-77.3" font-family="Arial" font-size="14.00">customer_key=101</text>
<polyline fill="none" stroke="black" points="0,-69.5 173,-69.5 "/>
<text text-anchor="middle" x="86.5" y="-54.3" font-family="Arial" font-size="14.00">Silver tier</text>
<polyline fill="none" stroke="black" points="0,-46.5 173,-46.5 "/>
<text text-anchor="middle" x="86.5" y="-31.3" font-family="Arial" font-size="14.00">2025&#45;01&#45;01 to 2026&#45;03&#45;14</text>
<polyline fill="none" stroke="black" points="0,-23.5 173,-23.5 "/>
<text text-anchor="middle" x="86.5" y="-8.3" font-family="Arial" font-size="14.00">is_current=false</text>
</g>
<!-- change -->
<g id="node2" class="node">
<title>change</title>
<polygon fill="none" stroke="black" points="324,-96 209,-58 324,-20 439,-58 324,-96"/>
<text text-anchor="middle" x="324" y="-61.8" font-family="Arial" font-size="14.00">Attribute change</text>
<text text-anchor="middle" x="324" y="-46.8" font-family="Arial" font-size="14.00">2026&#45;03&#45;15</text>
</g>
<!-- v1&#45;&gt;change -->
<g id="edge1" class="edge">
<title>v1&#45;&gt;change</title>
<path fill="none" stroke="black" d="M173.19,-58C181.51,-58 190.05,-58 198.65,-58"/>
<polygon fill="black" stroke="black" points="198.75,-61.5 208.75,-58 198.75,-54.5 198.75,-61.5"/>
</g>
<!-- v2 -->
<g id="node3" class="node">
<title>v2</title>
<polygon fill="none" stroke="black" points="475,-0.5 475,-115.5 648,-115.5 648,-0.5 475,-0.5"/>
<text text-anchor="middle" x="561.5" y="-100.3" font-family="Arial" font-size="14.00">Version 2</text>
<polyline fill="none" stroke="black" points="475,-92.5 648,-92.5 "/>
<text text-anchor="middle" x="561.5" y="-77.3" font-family="Arial" font-size="14.00">customer_key=205</text>
<polyline fill="none" stroke="black" points="475,-69.5 648,-69.5 "/>
<text text-anchor="middle" x="561.5" y="-54.3" font-family="Arial" font-size="14.00">Gold tier</text>
<polyline fill="none" stroke="black" points="475,-46.5 648,-46.5 "/>
<text text-anchor="middle" x="561.5" y="-31.3" font-family="Arial" font-size="14.00">2026&#45;03&#45;15 to 9999&#45;12&#45;31</text>
<polyline fill="none" stroke="black" points="475,-23.5 648,-23.5 "/>
<text text-anchor="middle" x="561.5" y="-8.3" font-family="Arial" font-size="14.00">is_current=true</text>
</g>
<!-- change&#45;&gt;v2 -->
<g id="edge2" class="edge">
<title>change&#45;&gt;v2</title>
<path fill="none" stroke="black" d="M439.3,-58C447.8,-58 456.32,-58 464.69,-58"/>
<polygon fill="black" stroke="black" points="464.81,-61.5 474.81,-58 464.81,-54.5 464.81,-61.5"/>
</g>
</g>
</svg>
